# xmcd
#
# Track frame offsets: 
#        150
#        19517
#        37303
#        61417
#        74258
#        98298
#        113226
#        131688
#
# Disc length: 2191 seconds
#
# Revision: 0
# Processed by: cddbd v1.5.2PL0 Copyright (c) Steve Scherf et al.
# Submitted via: ExactAudioCopy v0.95b3
#
DISCID=67088d08
DTITLE=Black Oak Arkansas  - Race With the Devil - 1977 - 320K
DYEAR=1900
DGENRE=
TTITLE0=Race With The Devil
TTITLE1=Freedom
TTITLE2=One Night Stand
TTITLE3=Daisy
TTITLE4=Rainbow
TTITLE5=Feels So Good
TTITLE6=Stand By Your Own Kind
TTITLE7=Not Fade Away
EXTD=
EXTT0=
EXTT1=
EXTT2=
EXTT3=
EXTT4=
EXTT5=
EXTT6=
EXTT7=
PLAYORDER=
